<?xml version="1.0" encoding="UTF-8"?>
<svg version="1.1" xmlns="http://www.w3.org/2000/svg" width="1024" height="1024">
<path d="M0 0 C14.5908079 12.30205372 24.65225142 28.0855899 27.58984375 47.18359375 C27.88355171 51.29200869 27.91482909 55.37842872 27.90234375 59.49609375 C27.91845703 60.54732422 27.93457031 61.59855469 27.95117188 62.68164062 C27.95768174 73.27319561 25.81339695 82.90920477 20.90234375 92.30859375 C20.55276611 92.98744629 20.20318848 93.66629883 19.84301758 94.36572266 C10.19546658 112.54490081 -5.88334421 125.11444947 -25.41015625 131.18359375 C-27.14551028 131.55644959 -28.8848015 131.91129612 -30.62695312 132.25097656 C-31.52377808 132.42687317 -32.42060303 132.60276978 -33.34460449 132.78399658 C-34.02623657 132.91586365 -34.70786865 133.04773071 -35.41015625 133.18359375 C-41.24049108 180.19161665 -41.24049108 180.19161665 -26.05859375 222.515625 C-18.00293049 231.45223608 -8.48425611 239.04941417 1.55267334 245.65110779 C4.15918492 247.6118875 6.31411491 249.84463706 8.58984375 252.18359375 C9.73705925 253.3360509 10.88590901 254.48688251 12.03599548 255.63647461 C13.37028119 256.97378419 14.70455472 258.31110591 16.03881836 259.6484375 C23.49606915 267.12204427 30.9558811 274.59308934 38.41713619 282.06269836 C42.92647153 286.57726099 47.43486409 291.09275701 51.94116211 295.61035156 C56.30839094 299.98845511 60.67806683 304.36410256 65.04944038 308.73806763 C66.71164772 310.40211881 68.37297648 312.0670481 70.03339958 313.73287964 C72.35709286 316.06384573 74.68391104 318.39164942 77.01147461 320.71875 C78.03331848 321.74598679 78.03331848 321.74598679 79.07580566 322.79397583 C81.93870191 325.65072761 84.79717418 328.41236306 87.93849182 330.96264648 C90.58984375 333.18359375 90.58984375 333.18359375 92.58984375 336.18359375 C95.33870449 335.31553246 98.04499674 334.42202773 100.6875 333.265625 C117.939551 325.7484542 136.90075477 324.77061725 154.58984375 331.18359375 C173.03595501 339.20805845 186.62178611 352.83348705 194.58984375 371.18359375 C202.06060488 391.30714684 200.96720243 409.6364235 192.58984375 429.18359375 C216.01984375 429.18359375 239.44984375 429.18359375 263.58984375 429.18359375 C263.75484375 437.41296875 263.91984375 445.64234375 264.08984375 454.12109375 C264.14205078 456.68109131 264.19425781 459.24108887 264.24804688 461.87866211 C264.67695613 483.35452642 264.51111963 504.77091973 264.08984375 526.24609375 C264.04151882 528.77017947 263.99334064 531.29426799 263.9453125 533.81835938 C263.82851317 539.94013761 263.7099086 546.06187874 263.58984375 552.18359375 C264.50251511 552.27542435 264.50251511 552.27542435 265.43362427 552.36911011 C266.63847977 552.49553391 266.63847977 552.49553391 267.86767578 552.62451172 C268.66174835 552.70635712 269.45582092 552.78820251 270.2739563 552.87252808 C286.15465775 555.00559421 300.40395999 565.59813543 310.5546875 577.484375 C323.21705339 594.56851946 329.97498283 614.40346609 327.1171875 635.70703125 C323.31170419 655.98775069 312.97718256 674.17951649 296.14453125 686.52734375 C278.57407166 697.91858972 258.11244756 702.53015875 237.40234375 698.18359375 C225.9705056 694.74105158 214.38011923 689.33396412 205.58984375 681.18359375 C204.77257812 680.4565625 203.9553125 679.72953125 203.11328125 678.98046875 C188.46073165 665.2575371 181.64430442 647.56539337 180.37109375 627.78515625 C179.81747931 607.25528745 186.62190147 587.2705765 200.6015625 572.08203125 C212.95226249 560.2894179 227.10772215 555.30412415 243.58984375 551.18359375 C243.58984375 517.52359375 243.58984375 483.86359375 243.58984375 449.18359375 C232.90609375 449.18359375 222.22234375 449.18359375 211.21484375 449.18359375 C206.18290771 449.15265625 206.18290771 449.15265625 201.04931641 449.12109375 C198.36749047 449.13878827 195.68568166 449.15942605 193.00390625 449.18359375 C192.32016937 449.17344238 191.6364325 449.16329102 190.93197632 449.15283203 C182.08563789 449.03510632 176.25544996 449.93447035 169.6237793 456.24978638 C166.66794579 459.0601078 163.68122919 460.395372 159.96484375 462.05859375 C159.3615625 462.33960938 158.75828125 462.620625 158.13671875 462.91015625 C143.23058506 469.633774 123.45442092 469.57210526 107.99609375 464.55859375 C88.75104266 456.78994927 73.98597517 444.38905772 65.65234375 424.98046875 C62.97814484 417.94103338 61.06044315 410.71318416 60.58984375 403.18359375 C60.51056641 402.00796875 60.51056641 402.00796875 60.4296875 400.80859375 C59.81591748 382.87583479 65.35609609 366.09337063 76.58984375 352.18359375 C74.93248408 347.83434418 71.67826032 345.09228434 68.40234375 341.93359375 C61.22895322 334.90020975 61.22895322 334.90020975 58.21484375 331.30859375 C54.73005587 327.21243957 50.94725923 323.42712986 47.15234375 319.62109375 C46.53117676 318.99541504 45.91000977 318.36973633 45.27001953 317.72509766 C40.85294541 313.32191006 36.30467725 309.30907306 31.58984375 305.18359375 C9.80984375 283.40359375 -11.97015625 261.62359375 -34.41015625 239.18359375 C-34.74015625 342.14359375 -35.07015625 445.10359375 -35.41015625 551.18359375 C-32.11015625 551.84359375 -28.81015625 552.50359375 -25.41015625 553.18359375 C-21.58067988 554.54562401 -18.02162952 556.32329529 -14.41015625 558.18359375 C-13.58644531 558.60382812 -12.76273438 559.0240625 -11.9140625 559.45703125 C6.91355881 569.88000241 19.26902182 588.48659579 25.52734375 608.74609375 C30.03059189 629.60176171 25.9522699 650.36680291 14.58984375 668.18359375 C4.49865673 683.20687422 -11.42875136 693.64326762 -29.03515625 697.73046875 C-32.50464741 698.39241114 -35.88189886 698.96307766 -39.41015625 699.18359375 C-40.58578125 699.26287109 -40.58578125 699.26287109 -41.78515625 699.34375 C-60.37912486 699.98015071 -78.09516423 693.93160012 -92.41015625 682.18359375 C-93.11527344 681.6525 -93.82039063 681.12140625 -94.546875 680.57421875 C-108.45883059 669.53211647 -116.0583133 651.39575408 -118.41015625 634.18359375 C-119.94590108 612.58553288 -114.93485296 592.09225448 -100.51953125 575.4140625 C-88.89627688 563.12354723 -75.76468597 555.3626382 -59.41015625 551.18359375 C-58.09015625 551.18359375 -56.77015625 551.18359375 -55.41015625 551.18359375 C-55.74015625 448.55359375 -56.07015625 345.92359375 -56.41015625 240.18359375 C-77.86015625 261.63359375 -99.31015625 283.08359375 -121.41015625 305.18359375 C-124.05015625 307.49359375 -126.69015625 309.80359375 -129.41015625 312.18359375 C-131.15987764 314.01018608 -132.8776226 315.8681988 -134.5546875 317.76171875 C-140.82141554 324.73588087 -147.44498617 331.33013393 -154.09765625 337.93359375 C-155.3003679 339.13127177 -156.50284304 340.32918735 -157.70507812 341.52734375 C-160.60406525 344.41549254 -163.50618618 347.3004556 -166.41015625 350.18359375 C-166.01328613 350.77092285 -165.61641602 351.35825195 -165.20751953 351.96337891 C-152.60208983 370.72360848 -145.95349835 389.63936294 -150.05859375 412.4375 C-154.38152967 430.15414762 -165.29136027 446.55278491 -180.47265625 456.80859375 C-198.31024311 467.62000215 -217.15748035 470.57743389 -237.5546875 466.15234375 C-244.05165894 464.51987271 -250.57190035 462.61706634 -255.7331543 458.19189453 C-265.79085374 449.64505887 -277.44180966 451.10222955 -289.97265625 451.24609375 C-293.26308373 451.24682382 -296.5533319 451.23632593 -299.84373474 451.22422791 C-301.87650831 451.22074302 -303.90933314 451.22636634 -305.94203186 451.24415588 C-315.49995222 451.30260844 -324.79633224 450.68958449 -334.41015625 450.18359375 C-334.41015625 484.17359375 -334.41015625 518.16359375 -334.41015625 553.18359375 C-330.78015625 553.84359375 -327.15015625 554.50359375 -323.41015625 555.18359375 C-305.02259705 560.40423484 -289.04538863 572.64845071 -279.41015625 589.18359375 C-270.3791402 607.07337214 -268.04913627 628.47687157 -274.08203125 647.72265625 C-281.04507911 665.8675398 -292.75919116 682.15072389 -310.41015625 691.18359375 C-321.61061642 695.89430183 -332.09050477 698.56886767 -344.22265625 698.49609375 C-345.19388428 698.4911792 -346.1651123 698.48626465 -347.16577148 698.48120117 C-354.29904916 698.36475168 -360.6578086 697.58680682 -367.41015625 695.18359375 C-368.44914062 694.85488281 -369.488125 694.52617188 -370.55859375 694.1875 C-388.36384692 688.07619576 -401.64579191 675.66924255 -410.41015625 659.18359375 C-418.61623262 642.24297138 -420.569142 623.63709541 -415.54296875 605.38671875 C-410.87803206 592.19620812 -403.72072596 580.72087073 -393.41015625 571.18359375 C-392.90871094 570.66539062 -392.40726563 570.1471875 -391.890625 569.61328125 C-387.64534299 565.48823599 -383.00460789 562.63758664 -377.78515625 559.93359375 C-377.17115967 559.60447998 -376.55716309 559.27536621 -375.92456055 558.9362793 C-369.07804829 555.54292628 -363.41519239 554.89895864 -355.41015625 553.18359375 C-355.41015625 512.59359375 -355.41015625 472.00359375 -355.41015625 430.18359375 C-331.65015625 430.18359375 -307.89015625 430.18359375 -283.41015625 430.18359375 C-285.88515625 423.74859375 -285.88515625 423.74859375 -288.41015625 417.18359375 C-293.92482822 396.87957423 -289.75405956 376.90847358 -279.46142578 358.93017578 C-272.67775728 347.65977066 -263.02726263 339.73012164 -251.41015625 333.80859375 C-250.78238281 333.48681152 -250.15460938 333.1650293 -249.5078125 332.83349609 C-240.19372174 328.33120938 -231.02141885 326.64209973 -220.72265625 326.74609375 C-219.68044922 326.7522168 -218.63824219 326.75833984 -217.56445312 326.76464844 C-205.56619202 327.0052058 -194.99760922 329.37087447 -184.41015625 335.18359375 C-180.30684713 335.18359375 -179.30391727 333.63736761 -176.26594543 330.91828918 C-175.74885456 330.45809015 -175.23176369 329.99789112 -174.6990034 329.52374667 C-172.95959315 327.97031757 -171.2311513 326.40524242 -169.50317383 324.83911133 C-168.26145162 323.72258846 -167.01964348 322.60616114 -165.77775574 321.48982239 C-154.30595016 311.14071061 -143.06208803 300.54725909 -131.87868214 289.88805103 C-124.37880156 282.74822893 -116.82591275 275.69654729 -109.07836914 268.82543945 C-68.18297779 233.91318742 -68.18297779 233.91318742 -51.32385051 185.05531871 C-50.57925241 167.36049266 -52.42461347 149.60847854 -55.41015625 132.18359375 C-56.09260406 132.12237335 -56.77505188 132.06115295 -57.47817993 131.99807739 C-58.37563934 131.91379486 -59.27309875 131.82951233 -60.19775391 131.74267578 C-61.53080063 131.61990768 -61.53080063 131.61990768 -62.89077759 131.49465942 C-79.14345564 129.48795423 -93.13495262 118.22479169 -103.41015625 106.18359375 C-116.82566969 88.7172148 -119.85075944 68.62172257 -118.41015625 47.18359375 C-117.81237846 42.97315886 -116.8651193 39.17219935 -115.41015625 35.18359375 C-115.13171875 34.343125 -114.85328125 33.50265625 -114.56640625 32.63671875 C-107.88221671 14.08233054 -93.45089064 -0.39119365 -75.83984375 -8.7578125 C-51.13285634 -19.52243242 -21.41711316 -16.63678834 0 0 Z " fill="#6B327B" transform="translate(557.41015625,168.81640625)"/>
<path d="M0 0 C1.56331055 0.00918457 1.56331055 0.00918457 3.15820312 0.01855469 C15.05818774 0.25714167 25.87121191 2.50029697 36.3125 8.4375 C37.3025 8.7675 38.2925 9.0975 39.3125 9.4375 C41.01978151 11.06253705 42.68108863 12.7363085 44.3125 14.4375 C45.18648437 15.27667969 46.06046875 16.11585938 46.9609375 16.98046875 C61.65983745 31.23713819 71.04412039 47.25741582 71.71508789 68.07641602 C71.99019936 89.63707531 64.28925264 106.875959 49.5625 122.5625 C36.90208872 134.76297282 19.53141099 141.21606101 2.125 141.75 C-10.01231819 141.51936212 -25.49593531 139.60342588 -35.01049805 131.44580078 C-45.06819749 122.89896512 -56.71915341 124.3561358 -69.25 124.5 C-72.54042748 124.50073007 -75.83067565 124.49023218 -79.12107849 124.47813416 C-81.15385206 124.47464927 -83.18667689 124.48027259 -85.21937561 124.49806213 C-94.77729597 124.55651469 -104.07367599 123.94349074 -113.6875 123.4375 C-113.6875 157.4275 -113.6875 191.4175 -113.6875 226.4375 C-108.2425 227.4275 -108.2425 227.4275 -102.6875 228.4375 C-84.2999408 233.65814109 -68.32273238 245.90235696 -58.6875 262.4375 C-49.65648395 280.32727839 -47.32648002 301.73077782 -53.359375 320.9765625 C-60.32242286 339.12144605 -72.03653491 355.40463014 -89.6875 364.4375 C-100.88796017 369.14820808 -111.36784852 371.82277392 -123.5 371.75 C-124.47122803 371.74508545 -125.44245605 371.7401709 -126.44311523 371.73510742 C-133.57639291 371.61865793 -139.93515235 370.84071307 -146.6875 368.4375 C-147.72648437 368.10878906 -148.76546875 367.78007813 -149.8359375 367.44140625 C-167.64119067 361.33010201 -180.92313566 348.9231488 -189.6875 332.4375 C-197.89357637 315.49687763 -199.84648575 296.89100166 -194.8203125 278.640625 C-190.15537581 265.45011437 -182.99806971 253.97477698 -172.6875 244.4375 C-172.18605469 243.91929687 -171.68460938 243.40109375 -171.16796875 242.8671875 C-166.92268674 238.74214224 -162.28195164 235.89149289 -157.0625 233.1875 C-156.44850342 232.85838623 -155.83450684 232.52927246 -155.2019043 232.19018555 C-148.35539204 228.79683253 -142.69253614 228.15286489 -134.6875 226.4375 C-134.6875 185.8475 -134.6875 145.2575 -134.6875 103.4375 C-110.9275 103.4375 -87.1675 103.4375 -62.6875 103.4375 C-65.1625 97.0025 -65.1625 97.0025 -67.6875 90.4375 C-73.20217197 70.13348048 -69.03140331 50.16237983 -58.73876953 32.18408203 C-51.95510103 20.91367691 -42.30460638 12.98402789 -30.6875 7.0625 C-30.05972656 6.74071777 -29.43195313 6.41893555 -28.78515625 6.08740234 C-19.47106549 1.58511563 -10.2987626 -0.10399402 0 0 Z " fill="#83C1D2" transform="translate(336.6875,495.5625)"/>
<path d="M0 0 C14.83363503 12.57738633 24.10033618 28.78116591 26.75 48.1875 C27.70635382 62.32899414 25.3579811 74.10221078 19.75 87.1875 C43.18 87.1875 66.61 87.1875 90.75 87.1875 C90.915 95.416875 91.08 103.64625 91.25 112.125 C91.30220703 114.68499756 91.35441406 117.24499512 91.40820312 119.88256836 C91.83711238 141.35843267 91.67127588 162.77482598 91.25 184.25 C91.20167507 186.77408572 91.15349689 189.29817424 91.10546875 191.82226562 C90.98866942 197.94404386 90.87006485 204.06578499 90.75 210.1875 C91.35844757 210.2487204 91.96689514 210.3099408 92.59378052 210.37301636 C93.39701752 210.45729889 94.20025452 210.54158142 95.02783203 210.62841797 C96.21894089 210.75118607 96.21894089 210.75118607 97.43411255 210.87643433 C113.314814 213.00950046 127.56411624 223.60204168 137.71484375 235.48828125 C150.37720964 252.57242571 157.13513908 272.40737234 154.27734375 293.7109375 C150.47186044 313.99165694 140.13733881 332.18342274 123.3046875 344.53125 C105.73422791 355.92249597 85.27260381 360.534065 64.5625 356.1875 C53.13066185 352.74495783 41.54027548 347.33787037 32.75 339.1875 C31.93273437 338.46046875 31.11546875 337.7334375 30.2734375 336.984375 C15.6208879 323.26144335 8.80446067 305.56929962 7.53125 285.7890625 C6.97763556 265.2591937 13.78205772 245.27448275 27.76171875 230.0859375 C40.11241874 218.29332415 54.2678784 213.3080304 70.75 209.1875 C70.75 175.5275 70.75 141.8675 70.75 107.1875 C60.06625 107.1875 49.3825 107.1875 38.375 107.1875 C33.34306396 107.1565625 33.34306396 107.1565625 28.20947266 107.125 C25.52764672 107.14269452 22.84583791 107.1633323 20.1640625 107.1875 C19.48032562 107.17734863 18.79658875 107.16719727 18.09213257 107.15673828 C9.24579414 107.03901257 3.41560621 107.9383766 -3.21606445 114.25369263 C-6.17189796 117.06401405 -9.15861456 118.39927825 -12.875 120.0625 C-13.47828125 120.34351563 -14.0815625 120.62453125 -14.703125 120.9140625 C-29.60925869 127.63768025 -49.38542283 127.57601151 -64.84375 122.5625 C-84.08880109 114.79385552 -98.85386858 102.39296397 -107.1875 82.984375 C-109.86169891 75.94493963 -111.7794006 68.71709041 -112.25 61.1875 C-112.30285156 60.40375 -112.35570312 59.62 -112.41015625 58.8125 C-112.98015294 42.15868352 -108.37772141 25.40556316 -97.7265625 12.52734375 C-95.98898642 10.31776312 -95.98898642 10.31776312 -96.5234375 7.87890625 C-96.88308594 7.04166016 -96.88308594 7.04166016 -97.25 6.1875 C-96.5384375 6.11917969 -95.826875 6.05085937 -95.09375 5.98046875 C-91.38961566 4.94758514 -89.57362452 3.09478682 -86.75 0.5 C-62.01301489 -21.18303633 -25.20855844 -19.19728682 0 0 Z " fill="#83C1D2" transform="translate(730.25,510.8125)"/>
<path d="M0 0 C0.33 0 0.66 0 1 0 C1 102.96 1 205.92 1 312 C6.28 312 11.56 312 17 312 C37.24017171 314.78518602 54.4699574 325.83477918 66.87109375 341.8671875 C79.71313478 360.76501669 85.0455517 380.66339516 81.375 403.4375 C77.70048164 421.83432425 66.43360419 438.48396577 51 449 C40.17003771 455.4506948 28.69732028 460.20641748 16 461 C14.824375 461.07927734 14.824375 461.07927734 13.625 461.16015625 C-4.96896861 461.79655696 -22.68500798 455.74800637 -37 444 C-37.70511719 443.46890625 -38.41023438 442.9378125 -39.13671875 442.390625 C-53.04867434 431.34852272 -60.64815705 413.21216033 -63 396 C-64.53574483 374.40193913 -59.52469671 353.90866073 -45.109375 337.23046875 C-33.48612063 324.93995348 -20.35452972 317.17904445 -4 313 C-2.68 313 -1.36 313 0 313 C0 209.71 0 106.42 0 0 Z " fill="#96BF42" transform="translate(502,407)"/>
<path d="M0 0 C1.28519531 -0.01160156 2.57039062 -0.02320313 3.89453125 -0.03515625 C24.34241981 0.02712158 39.51680963 7.52606197 54.265625 21.38671875 C67.65725433 35.22649316 75.40459237 55.26215441 75.37158203 74.3515625 C74.99054598 95.98188279 65.11209579 114.31156926 50.125 129.375 C35.1108379 143.34690319 15.77232026 148.39349669 -4.25390625 147.68359375 C-19.5125762 146.81931513 -35.64112832 139.79108025 -46.875 129.375 C-47.69226563 128.64796875 -48.50953125 127.9209375 -49.3515625 127.171875 C-64.0041121 113.44894335 -70.82053933 95.75679962 -72.09375 75.9765625 C-72.64736444 55.4466937 -65.84294228 35.46198275 -51.86328125 20.2734375 C-37.28019673 6.34931358 -19.86459011 -0.17824657 0 0 Z " fill="#4DA336" transform="translate(809.875,720.625)"/>
<path d="M0 0 C17.16 0 34.32 0 52 0 C52 0.33 52 0.66 52 1 C35.17 1 18.34 1 1 1 C1 41.26 1 81.52 1 123 C8.59 123 16.18 123 24 123 C44.95943885 127.81500622 62.2922684 138.2400303 74.40234375 156.30859375 C84.550171 173.4035888 87.10221551 194.73794201 82.4375 214 C76.5858623 232.66754845 64.94439032 249.28782366 47.9921875 259.46875 C36.3014137 265.45149586 24.24124863 268.39080207 11.1875 268.3125 C10.21627197 268.30758545 9.24504395 268.3026709 8.24438477 268.29760742 C1.11110709 268.18115793 -5.24765235 267.40321307 -12 265 C-13.03898437 264.67128906 -14.07796875 264.34257813 -15.1484375 264.00390625 C-32.95369067 257.89260201 -46.23563566 245.4856488 -55 229 C-63.20607637 212.05937763 -65.15898575 193.45350166 -60.1328125 175.203125 C-55.46787581 162.01261437 -48.31056971 150.53727698 -38 141 C-37.49855469 140.48179687 -36.99710938 139.96359375 -36.48046875 139.4296875 C-32.23518674 135.30464224 -27.59445164 132.45399289 -22.375 129.75 C-21.76100342 129.42088623 -21.14700684 129.09177246 -20.5144043 128.75268555 C-13.66789204 125.35933253 -8.00503614 124.71536489 0 123 C0 82.41 0 41.82 0 0 Z " fill="#96BF41" transform="translate(202,599)"/>
<path d="M0 0 C7.26 0 14.52 0 22 0 C21.34 0.33 20.68 0.66 20 1 C14.16966517 48.0080229 14.16966517 48.0080229 29.3515625 90.33203125 C37.40722576 99.26864233 46.92590014 106.86582042 56.96282959 113.46751404 C59.56934117 115.42829375 61.72427116 117.66104331 64 120 C65.1472155 121.15245715 66.29606526 122.30328876 67.44615173 123.45288086 C68.78043744 124.79019044 70.11471097 126.12751216 71.44897461 127.46484375 C78.9062254 134.93845052 86.36603735 142.40949559 93.82729244 149.87910461 C98.33662778 154.39366724 102.84502034 158.90916326 107.35131836 163.42675781 C111.71854719 167.80486136 116.08822308 172.18050881 120.45959663 176.55447388 C122.12180397 178.21852506 123.78313273 179.88345435 125.44355583 181.54928589 C127.76724911 183.88025198 130.09406729 186.20805567 132.42163086 188.53515625 C133.44347473 189.56239304 133.44347473 189.56239304 134.48596191 190.61038208 C137.35965095 193.47790348 140.22623377 196.24104852 143.38771057 198.79077148 C146.11523367 201.09745379 147.0310108 202.60853779 148 206 C145.97839051 207.90163267 143.93754921 209.76870571 141.875 211.625 C141.02035156 212.43710937 141.02035156 212.43710937 140.1484375 213.265625 C138.4831249 214.74169753 136.97064267 215.96473675 135 217 C129.67240155 216.45567321 126.59333319 213.11721217 123.0625 209.375 C122.53309814 208.83012939 122.00369629 208.28525879 121.45825195 207.72387695 C118.78198515 204.94905191 116.18823584 202.12230138 113.6875 199.1875 C110.17842588 195.0734131 106.37822412 191.26441803 102.5625 187.4375 C101.94141357 186.81190186 101.32032715 186.18630371 100.68041992 185.54174805 C96.26326553 181.13847862 91.71491876 177.12555391 87 173 C65.22 151.22 43.44 129.44 21 107 C20.67 209.96 20.34 312.92 20 419 C13.73 418.67 7.46 418.34 1 418 C0.67 315.37 0.34 212.74 0 107 C-21.78 128.78 -43.56 150.56 -66 173 C-68.64 175.31 -71.28 177.62 -74 180 C-75.74972139 181.82659233 -77.46746635 183.68460505 -79.14453125 185.578125 C-85.41125929 192.55228712 -92.03482992 199.14654018 -98.6875 205.75 C-99.89021165 206.94767802 -101.09268679 208.1455936 -102.29492188 209.34375 C-105.193909 212.23189879 -108.09602993 215.11686185 -111 218 C-114.09470806 216.52745342 -116.13678068 215.05999314 -118.5 212.5625 C-120.86688138 210.1192676 -123.17481095 207.92112855 -126 206 C-125.5134938 201.7637389 -123.23224159 200.04386878 -120.13426208 197.29164124 C-119.36731438 196.60234147 -119.36731438 196.60234147 -118.58487278 195.89911646 C-117.46273463 194.89168448 -116.33723618 193.88798617 -115.20886803 192.887537 C-112.06515257 190.098392 -108.94836014 187.27937725 -105.82847595 184.46363831 C-104.82697347 183.56150689 -104.82697347 183.56150689 -103.8052386 182.64115059 C-94.41102856 174.16072518 -85.22383947 165.45708067 -76.02394009 156.76708317 C-68.56133862 149.72996399 -61.04428697 142.77947298 -53.35083008 135.99487305 C-44.45045191 128.12699601 -35.75170642 120.08073771 -27.30859375 111.72265625 C-26.28269552 110.70745368 -26.28269552 110.70745368 -25.23607206 109.67174196 C-5.652319 90.07030579 4.09736669 72.97738247 4.25267029 44.87168884 C4.05821943 29.78315996 2.45458276 14.87404952 0 0 Z " fill="#737298" transform="translate(502,301)"/>
<path d="M0 0 C1.27241043 0.00888245 2.54482086 0.01776489 3.85578918 0.0269165 C4.55848434 0.0263324 5.2611795 0.02574829 5.98516846 0.02514648 C8.3068845 0.02793237 10.62731516 0.0590455 12.94880676 0.09039307 C14.55876972 0.09785373 16.16874176 0.10354749 17.77871704 0.10754395 C22.01549873 0.12281422 26.25173161 0.16210751 30.48829651 0.20635986 C34.81164628 0.24728283 39.13508475 0.26554857 43.45857239 0.28570557 C51.94124607 0.3286009 60.42347377 0.39686848 68.90583801 0.48101807 C69.05070836 7.43287332 69.19279493 14.38478176 69.33308411 21.33673096 C69.38096874 23.69416547 69.42945519 26.05158784 69.47859192 28.40899658 C69.95173952 51.1442218 69.85183446 73.80817547 69.40583801 96.54351807 C69.35751308 99.06760378 69.30933491 101.59169231 69.26130676 104.11578369 C69.14450743 110.23756221 69.02572792 116.35929933 68.90583801 122.48101807 C61.64583801 122.48101807 54.38583801 122.48101807 46.90583801 122.48101807 C47.56583801 122.15101807 48.22583801 121.82101807 48.90583801 121.48101807 C48.90583801 87.82101807 48.90583801 54.16101807 48.90583801 19.48101807 C27.45583801 19.48101807 6.00583801 19.48101807 -16.09416199 19.48101807 C-14.77416199 17.50101807 -13.45416199 15.52101807 -12.09416199 13.48101807 C-11.56693542 12.68437744 -11.03970886 11.88773682 -10.49650574 11.06695557 C-10.0131073 10.33734619 -9.52970886 9.60773682 -9.03166199 8.85601807 C-8.54568542 8.12125244 -8.05970886 7.38648682 -7.55900574 6.62945557 C-7.0756073 5.92047119 -6.59220886 5.21148682 -6.09416199 4.48101807 C-5.71229233 3.78607239 -5.33042267 3.09112671 -4.9369812 2.37512207 C-3.09416199 0.48101807 -3.09416199 0.48101807 0 0 Z " fill="#727298" transform="translate(752.0941619873047,598.5189819335938)"/>
<path d="M0 0 C11.694375 -0.2475 23.38875 -0.495 35.4375 -0.75 C39.11447021 -0.85924805 42.79144043 -0.96849609 46.57983398 -1.08105469 C51.10949707 -1.13525391 51.10949707 -1.13525391 53.23768616 -1.14532471 C54.70773552 -1.1636195 56.17761696 -1.20555923 57.64649963 -1.26690674 C69.99862588 -1.75648999 69.99862588 -1.75648999 74.85452271 2.50524902 C77.17788904 5.57118996 79.08871222 8.66478249 81 12 C82.65 14.31 84.3 16.62 86 19 C64.22 19 42.44 19 20 19 C20 52.99 20 86.98 20 122 C13.4 122 6.8 122 0 122 C0 81.74 0 41.48 0 0 Z " fill="#706F97" transform="translate(203,600)"/>
<path d="M0 0 C0.66 0.33 1.32 0.66 2 1 C-2.95 5.95 -7.9 10.9 -13 16 C-13.66 15.67 -14.32 15.34 -15 15 C-10.28109462 9.59947495 -5.69641143 4.38185495 0 0 Z " fill="#A8CA61" transform="translate(469,733)"/>
<path d="M0 0 C0.66 0.33 1.32 0.66 2 1 C-3.28 6.28 -8.56 11.56 -14 17 C-14.66 16.67 -15.32 16.34 -16 16 C-14.27538679 14.07906479 -12.54557391 12.163278 -10.8125 10.25 C-10.32974609 9.71117187 -9.84699219 9.17234375 -9.34960938 8.6171875 C-6.43837795 5.41287909 -3.47293499 2.6158121 0 0 Z " fill="#976FA2" transform="translate(469,167)"/>
<path d="M0 0 C0.66 0.33 1.32 0.66 2 1 C-1.96 4.96 -5.92 8.92 -10 13 C-10.66 12.67 -11.32 12.34 -12 12 C-8.32167983 7.47384007 -4.58913637 3.60575001 0 0 Z " fill="#7ABA69" transform="translate(766,734)"/>
<path d="M0 0 C0.66 0.33 1.32 0.66 2 1 C-1.3 4.3 -4.6 7.6 -8 11 C-8.66 10.67 -9.32 10.34 -10 10 C-7.02911382 6.00073014 -3.87051275 3.07881696 0 0 Z " fill="#AECE6C" transform="translate(168,736)"/>
</svg>
